<?xml version="1.0" encoding="UTF-8" standalone="no"?>
<svg
   width="92"
   height="92"
   viewBox="0 0 92 92"
   fill="none"
   version="1.1"
   id="svg155"
   sodipodi:docname="casette.svg"
   inkscape:export-filename="/home/darthlevin/Godot/ProjectLam/new/learn_music_game/assets/gui/icons/casette.png"
   inkscape:export-xdpi="300"
   inkscape:export-ydpi="300"
   inkscape:version="1.1.2 (0a00cf5339, 2022-02-04)"
   xmlns:inkscape="http://www.inkscape.org/namespaces/inkscape"
   xmlns:sodipodi="http://sodipodi.sourceforge.net/DTD/sodipodi-0.dtd"
   xmlns="http://www.w3.org/2000/svg"
   xmlns:svg="http://www.w3.org/2000/svg">
  <sodipodi:namedview
     id="namedview157"
     pagecolor="#ffffff"
     bordercolor="#666666"
     borderopacity="1.0"
     inkscape:pageshadow="2"
     inkscape:pageopacity="0.0"
     inkscape:pagecheckerboard="0"
     showgrid="false"
     inkscape:zoom="6.9211291"
     inkscape:cx="19.794458"
     inkscape:cy="57.649553"
     inkscape:window-width="2560"
     inkscape:window-height="1355"
     inkscape:window-x="0"
     inkscape:window-y="0"
     inkscape:window-maximized="1"
     inkscape:current-layer="svg155" />
  <g
     filter="url(#filter0_ddd_245_1059)"
     id="g110"
     transform="matrix(1.8605113,0,0,1.8605113,-39.49161,-43.291519)">
    <path
       d="m 67.9501,32.6152 c 2.2306,0.9271 1.6744,4.7733 1.6744,7.2147 0,3.2534 0.1976,21.0683 -0.0932,21.8269 -0.3247,0.84 -1.0278,0.7276 -1.7252,0.9664 -1.3101,0.4439 -44.2193,2.6213 -44.4677,-0.5057 -0.7455,-9.3387 -1.1436,-21.5965 -1.1266,-27.0637 0.0113,-2.8994 6.2371,-2.4386 9.2244,-2.4162 10.193,0.0703 20.3774,-0.3905 30.5676,-0.3905 1.5049,0 4.5628,-0.2051 5.9463,0.3681 z"
       fill="#835c9f"
       id="path2" />
    <path
       d="m 62.0038,32.4579 c -9.4532,0 -18.9064,0.3962 -28.3765,0.3962 -0.7304,0 -1.4617,-0.0019 -2.1939,-0.0056 -0.7623,-0.0057 -1.728,-0.0394 -2.7445,-0.0394 -0.9797,0 -2.0075,0.0309 -2.9393,0.1489 -0.9317,0.1152 -1.7703,0.3203 -2.3604,0.6462 -0.3953,0.2192 -0.6748,0.4861 -0.8273,0.812 -0.0875,0.1854 -0.1384,0.3961 -0.1384,0.6377 0,0.1161 0,0.2341 0,0.354 0,5.6218 0.3981,17.5593 1.1238,26.6929 0.0028,0.0309 0.0141,0.0646 0.0508,0.1096 0.0395,0.0477 0.1045,0.1039 0.1977,0.1601 0.1891,0.1152 0.4884,0.2304 0.8781,0.3343 0.7793,0.2079 1.9172,0.3765 3.3176,0.5029 2.7981,0.2585 6.6438,0.3568 10.8452,0.3568 10.6024,0 23.4777,-0.6349 27.6198,-0.9917 0.5901,-0.0506 1.008,-0.0955 1.1972,-0.1293 0.0451,-0.0084 0.079,-0.0196 0.0847,-0.0196 0.2117,-0.0731 0.4178,-0.1124 0.6042,-0.1517 0.1863,-0.0422 0.3529,-0.0815 0.4913,-0.1433 0.0932,-0.0393 0.175,-0.0899 0.2456,-0.1545 0.096,-0.0871 0.1836,-0.2079 0.2542,-0.3934 l 0.0282,0.0113 -0.0282,-0.0085 V 61.581 l 0.0282,0.0113 -0.0282,-0.0085 V 61.581 l 0.0028,-0.0112 c 0.0019,-0.0094 0.0047,-0.0234 0.0084,-0.0421 0.0057,-0.0366 0.0113,-0.0871 0.017,-0.1518 0.0141,-0.1236 0.0254,-0.295 0.0339,-0.5057 0.0226,-0.4214 0.0367,-1.0001 0.0508,-1.6941 0.0226,-1.3879 0.0311,-3.2421 0.0311,-5.2621 0,-5.4954 -0.065,-12.2072 -0.065,-14.084 0,-0.8232 0.0621,-1.7924 0.0621,-2.7505 0,-0.7164 -0.0339,-1.4272 -0.1524,-2.0593 -0.1186,-0.6321 -0.3219,-1.1828 -0.6382,-1.5874 -0.2145,-0.2725 -0.4771,-0.4832 -0.8131,-0.6209 -0.3727,-0.1545 -0.9036,-0.2556 -1.5022,-0.3146 -0.5985,-0.059 -1.2649,-0.0759 -1.9143,-0.0759 -0.9261,0 -1.8184,0.0365 -2.4508,0.0365 v -0.2107 -0.2107 c 0.6183,0 1.5134,-0.0365 2.4508,-0.0365 0.6579,0 1.3355,0.0197 1.9567,0.0787 0.6212,0.0618 1.1831,0.1629 1.6207,0.3427 0.4066,0.1686 0.7313,0.4299 0.9854,0.753 0.2513,0.3202 0.432,0.7023 0.5619,1.1181 0.2569,0.8345 0.3162,1.8122 0.3191,2.787 0,0.9749 -0.0622,1.947 -0.0622,2.7505 0,1.8711 0.065,8.5858 0.065,14.084 0,1.6576 -0.0057,3.2028 -0.0226,4.4755 -0.0141,1.2727 -0.0395,2.2644 -0.0791,2.8263 -0.0113,0.1601 -0.0225,0.2838 -0.0367,0.3793 -0.0084,0.0506 -0.0169,0.0899 -0.0338,0.1348 -0.0904,0.236 -0.2146,0.4187 -0.3643,0.5535 -0.1468,0.1349 -0.3162,0.222 -0.4856,0.281 -0.3389,0.118 -0.6862,0.146 -1.0052,0.2556 -0.0424,0.0169 -0.0875,0.0253 -0.1468,0.0365 -0.0584,0.0094 -0.128,0.0197 -0.209,0.0309 -0.1666,0.0225 -0.3812,0.045 -0.6494,0.0703 -0.5308,0.0506 -1.2565,0.1067 -2.1459,0.1657 -1.776,0.1208 -4.1986,0.2585 -6.991,0.3849 -5.5821,0.2557 -12.6297,0.4777 -18.8951,0.4777 -5.1783,0 -9.8174,-0.1518 -12.6663,-0.5619 -0.9516,-0.1405 -1.6998,-0.3035 -2.2222,-0.5142 -0.2993,-0.1208 -0.5251,-0.25 -0.6776,-0.4326 -0.0791,-0.0984 -0.1355,-0.2136 -0.144,-0.3428 C 22.3981,52.984 22,41.0465 22,35.4079 c 0,-0.1217 0,-0.2407 0,-0.3568 0.0028,-0.2978 0.0621,-0.5703 0.1779,-0.8148 0.1157,-0.2416 0.2823,-0.4551 0.4856,-0.6349 0.4123,-0.3652 0.9685,-0.6125 1.6066,-0.7895 1.2819,-0.3511 2.9111,-0.4242 4.4188,-0.4242 1.025,0 1.9935,0.0337 2.7473,0.0393 0.7304,0.0057 1.4607,0.0085 2.1911,0.0085 9.456,0 18.912,-0.399 28.3765,-0.399 v 0.2107 z"
       fill="#0e0705"
       id="path4" />
    <path
       d="m 67.0833,53.1835 c 0.0113,2.2532 -1.8777,2.3459 -4.2042,2.3544 l -33.1172,0.1433 c -2.3266,0.0084 -4.2155,-0.0675 -4.224,-2.3207 l -0.0311,-7.3721 c -0.0113,-2.2532 1.8748,-2.4358 4.2043,-2.4442 l 33.1143,-0.1433 c 2.3294,-0.0084 4.2184,0.1573 4.2268,2.4106 z"
       fill="#40c3c6"
       id="path6" />
    <path
       d="m 67.295,53.1807 v 0.0028 0.0169 c 0,0.4944 -0.0875,0.9074 -0.2597,1.2418 -0.1723,0.3371 -0.4292,0.5956 -0.7398,0.7782 -0.2061,0.1236 -0.4376,0.2163 -0.6833,0.2866 -0.3303,0.0955 -0.6917,0.1517 -1.0786,0.1854 -0.5138,0.0477 -1.0729,0.0534 -1.6546,0.0562 L 29.7647,55.889 c -0.0904,0.0019 -0.1798,0.0029 -0.2682,0.0029 -0.6212,0 -1.2142,-0.0141 -1.7478,-0.0815 C 27.2122,55.743 26.7322,55.6193 26.3313,55.3833 26.0659,55.226 25.84,55.0181 25.6706,54.7484 25.4447,54.3888 25.3289,53.9308 25.3261,53.3605 L 25.295,45.9912 v -0.0196 c 0,-0.5872 0.1243,-1.062 0.3615,-1.4357 0.24,-0.3708 0.5872,-0.6321 0.9967,-0.8063 0.8188,-0.3484 1.8889,-0.3905 3.0578,-0.3961 L 62.8254,43.193 c 0.0584,-0.0019 0.1158,-0.0028 0.1722,-0.0028 0.6381,0 1.2424,0.0168 1.7902,0.0927 0.5477,0.0759 1.0418,0.2107 1.4484,0.4579 0.2711,0.163 0.5026,0.3793 0.6748,0.6575 0.2288,0.368 0.3502,0.8344 0.353,1.4131 l 0.031,7.3693 -0.2117,0.0028 h -0.2118 l -0.031,-7.3721 C 66.8376,45.2243 66.7021,44.8141 66.479,44.5135 66.256,44.2156 65.9341,44.0106 65.5106,43.8729 65.231,43.7802 64.9092,43.7184 64.5562,43.679 c -0.4715,-0.0533 -0.9995,-0.0674 -1.5586,-0.0674 -0.0564,0 -0.1129,0 -0.1694,0 L 29.711,43.7549 c -0.6494,0 -1.2593,0.0168 -1.7957,0.0871 -0.5365,0.0702 -0.9939,0.1938 -1.344,0.3989 -0.2316,0.1349 -0.4179,0.3035 -0.5563,0.5226 -0.1863,0.2922 -0.2993,0.6771 -0.2993,1.2081 v 0.0168 l 0.0339,7.3721 c 0.0029,0.5788 0.1327,0.9777 0.3502,1.2643 0.2145,0.2894 0.5279,0.4804 0.9374,0.6096 0.2738,0.0871 0.5873,0.1433 0.9345,0.1798 0.4603,0.045 0.977,0.0562 1.5248,0.0562 0.0884,0 0.1769,0 0.2654,0 l 33.1143,-0.1433 c 0.6523,-0.0028 1.265,-0.0112 1.8014,-0.0702 0.5365,-0.0618 0.9967,-0.1714 1.344,-0.3652 0.2316,-0.1264 0.4151,-0.2894 0.5563,-0.5001 0.1835,-0.281 0.2936,-0.6602 0.2936,-1.1912 v -0.0169 h 0.2118 z"
       fill="#0e0705"
       id="path8" />
    <path
       d="m 61.2075,50.402 c 0,0.9187 -0.7482,1.6632 -1.6715,1.6632 H 34.5788 c -0.9233,0 -1.6715,-0.7445 -1.6715,-1.6632 v -2.2476 c 0,-0.9187 0.7482,-1.6632 1.6715,-1.6632 H 59.536 c 0.9233,0 1.6715,0.7445 1.6715,1.6632 z"
       fill="#835c9f"
       id="path10" />
    <path
       d="m 61.4165,50.402 c 0,1.0339 -0.8414,1.874 -1.8805,1.874 H 34.5788 c -1.039,0 -1.8804,-0.8401 -1.8804,-1.874 v -2.2476 c 0,-1.0338 0.8414,-1.8739 1.8804,-1.8739 H 59.536 c 1.0391,0 1.8805,0.8401 1.8805,1.8739 v 2.2476 h -0.209 -0.2117 v -2.2476 c 0,-0.4017 -0.1638,-0.7641 -0.4292,-1.0282 C 60.304,46.8649 59.9398,46.7019 59.536,46.7019 H 34.5788 c -0.4037,0 -0.768,0.163 -1.0306,0.4243 -0.2654,0.2641 -0.4291,0.6265 -0.4291,1.0282 v 2.2476 c 0,0.4018 0.1637,0.7642 0.4291,1.0283 0.2626,0.2613 0.6269,0.4242 1.0306,0.4242 H 59.536 c 0.4038,0 0.768,-0.1629 1.0306,-0.4242 0.2654,-0.2641 0.4292,-0.6265 0.4292,-1.0283 h 0.2117 z"
       fill="#0e0705"
       id="path12" />
    <path
       d="m 67.2075,39.5997 c 0,1.6604 -1.3525,3.0061 -3.0212,3.0061 H 27.9379 c -1.6687,0 -3.0212,-1.3457 -3.0212,-3.0061 0,-1.6605 1.3525,-3.0062 3.0212,-3.0062 h 36.2484 c 1.6687,0 3.0212,1.3457 3.0212,3.0062 z"
       fill="#f7dd25"
       id="path14" />
    <path
       d="m 67.4193,39.5997 c 0,1.7756 -1.4485,3.214 -3.2329,3.214 H 27.9379 c -1.7845,0 -3.2329,-1.4384 -3.2329,-3.214 0,-1.7756 1.4484,-3.2169 3.2329,-3.2169 h 36.2485 c 1.7844,0 3.2329,1.4413 3.2329,3.2169 h -0.2117 -0.2118 c 0,-0.7726 -0.3134,-1.4722 -0.8217,-1.9779 -0.511,-0.5057 -1.2113,-0.8176 -1.9877,-0.8176 H 27.9379 c -0.7765,0 -1.4767,0.3119 -1.9878,0.8176 -0.5082,0.5057 -0.8216,1.2053 -0.8216,1.9779 0,0.7726 0.3134,1.4693 0.8216,1.975 0.5111,0.5086 1.2113,0.8204 1.9878,0.8204 h 36.2485 c 0.7764,0 1.4767,-0.3118 1.9877,-0.8204 0.5083,-0.5057 0.8217,-1.2024 0.8217,-1.975 h 0.2118 z"
       fill="#0e0705"
       id="path16" />
    <path
       d="m 45.2433,48.8935 c 0,4.3154 -3.5153,7.816 -7.8522,7.816 -4.3398,0 -7.8551,-3.5006 -7.8551,-7.816 0,-4.3154 3.5153,-7.8132 7.8551,-7.8132 4.3369,0 7.8522,3.4978 7.8522,7.8132 z"
       fill="#0e0705"
       id="path18" />
    <path
       d="m 41.1068,48.8934 c 0,2.0425 -1.663,3.7001 -3.7157,3.7001 -2.0556,0 -3.7186,-1.6576 -3.7186,-3.7001 0,-2.0424 1.663,-3.7 3.7186,-3.7 2.0527,0 3.7157,1.6576 3.7157,3.7 z"
       fill="#fefefe"
       id="path20" />
    <path
       d="m 41.1068,48.8933 h -0.2089 c 0,0.9637 -0.3925,1.8346 -1.0278,2.4668 -0.6353,0.6321 -1.5106,1.0226 -2.4791,1.0226 -0.9712,0 -1.8465,-0.3905 -2.479,-1.0226 -0.6353,-0.6322 -1.0278,-1.5031 -1.0278,-2.4668 0,-0.9636 0.3925,-1.8346 1.0278,-2.4667 0.6325,-0.6321 1.5078,-1.0226 2.479,-1.0226 0.9685,0 1.8438,0.3905 2.4791,1.0226 0.6353,0.6321 1.0278,1.5031 1.0278,2.4667 h 0.2089 0.2118 c 0,-2.1605 -1.7591,-3.9079 -3.9276,-3.9079 -2.1712,0 -3.9303,1.7474 -3.9303,3.9079 0,2.1605 1.7591,3.9108 3.9303,3.9108 2.1685,0 3.9276,-1.7503 3.9276,-3.9108 z"
       fill="#0e0705"
       id="path22" />
    <path
       d="m 39.6725,48.8935 c 0,1.2558 -1.0222,2.2728 -2.2815,2.2728 -1.2621,0 -2.2842,-1.017 -2.2842,-2.2728 0,-1.2559 1.0221,-2.2729 2.2842,-2.2729 1.2593,0 2.2815,1.017 2.2815,2.2729 h -0.209 -0.2117 c 0,-0.5113 -0.209,-0.9721 -0.545,-1.3092 -0.3388,-0.3344 -0.8019,-0.5423 -1.3158,-0.5423 -0.5167,0 -0.9797,0.2079 -1.3185,0.5423 -0.336,0.3371 -0.545,0.7979 -0.545,1.3092 0,0.5113 0.209,0.9749 0.545,1.3092 0.3388,0.3371 0.8018,0.5422 1.3185,0.5422 0.5139,0 0.977,-0.2051 1.3158,-0.5422 0.336,-0.3343 0.545,-0.7979 0.545,-1.3092 h 0.2117 z"
       fill="#0e0705"
       id="path24" />
    <path
       d="m 62.4329,48.8933 c 0,3.2393 -2.64,5.869 -5.8955,5.869 -3.2584,0 -5.8984,-2.6297 -5.8984,-5.869 0,-3.2393 2.64,-5.8662 5.8984,-5.8662 3.2555,0 5.8955,2.6269 5.8955,5.8662 z"
       fill="#0e0705"
       id="path26" />
    <path
       d="m 59.3271,48.8934 c 0,1.534 -1.248,2.7786 -2.7897,2.7786 -1.5416,0 -2.7925,-1.2446 -2.7925,-2.7786 0,-1.5339 1.2509,-2.7757 2.7925,-2.7757 1.5417,0 2.7897,1.2418 2.7897,2.7757 z"
       fill="#fefefe"
       id="path28" />
    <path
       d="m 59.3271,48.8935 h -0.209 c 0,0.7108 -0.2908,1.3513 -0.7567,1.8149 -0.4687,0.4664 -1.1124,0.7529 -1.824,0.7529 -0.7143,0 -1.3581,-0.2865 -1.824,-0.7529 -0.4687,-0.4636 -0.7567,-1.1041 -0.7567,-1.8149 0,-0.708 0.288,-1.3486 0.7567,-1.815 0.4659,-0.4635 1.1097,-0.7501 1.824,-0.7529 0.7116,0 1.3553,0.2894 1.824,0.7529 0.4659,0.4664 0.7567,1.107 0.7567,1.815 h 0.209 0.2118 c 0,-1.6492 -1.344,-2.9865 -3.0015,-2.9865 -1.6574,0 -3.0042,1.3373 -3.0042,2.9865 0,1.6519 1.3468,2.9892 3.0042,2.9892 1.6575,0 3.0015,-1.3373 3.0015,-2.9892 z"
       fill="#0e0705"
       id="path30" />
    <path
       d="m 58.305,48.8935 c 0,0.9721 -0.7935,1.7587 -1.7676,1.7587 -0.9769,0 -1.7675,-0.7866 -1.7675,-1.7587 0,-0.9721 0.7906,-1.7587 1.7675,-1.7587 0.977,0 1.7676,0.7866 1.7676,1.7587 h -0.2118 -0.2118 c 0,-0.3708 -0.1496,-0.7024 -0.3924,-0.9468 -0.2457,-0.2416 -0.5817,-0.3905 -0.9516,-0.3905 -0.3727,0 -0.7087,0.1489 -0.9515,0.3905 -0.2428,0.2444 -0.3953,0.576 -0.3953,0.9468 0,0.3709 0.1525,0.7024 0.3953,0.9468 0.2428,0.2416 0.5788,0.3905 0.9515,0.3933 0.3699,-0.0028 0.7059,-0.1517 0.9516,-0.3933 0.2428,-0.2444 0.3924,-0.5759 0.3924,-0.9468 h 0.2118 z"
       fill="#0e0705"
       id="path32" />
    <path
       d="m 33.249,63.7022 c -0.0735,-1.7447 0.8894,-5.7257 11.0004,-6.2989 11.5793,-0.6602 14.8405,1.2474 15.8767,5.7791 -7.4484,0.3821 -18.7623,0.753 -26.8771,0.5198 z"
       fill="#ed265b"
       id="path34" />
    <path
       d="m 60.1148,62.9717 0.0113,0.2107 -0.2061,0.0478 c -0.1666,-0.7277 -0.3896,-1.3823 -0.6946,-1.9639 -0.3049,-0.5787 -0.6889,-1.09 -1.183,-1.5339 -0.9883,-0.885 -2.4254,-1.52 -4.5431,-1.8824 -1.4118,-0.2416 -3.1228,-0.3652 -5.1953,-0.3652 -1.2198,0 -2.5609,0.0421 -4.0433,0.1264 -3.6508,0.2079 -6.0903,0.8625 -7.6997,1.6829 -1.6123,0.8204 -2.4,1.7952 -2.7784,2.6746 -0.2541,0.5844 -0.3275,1.1322 -0.3275,1.5649 0,0.0562 0.0019,0.1096 0.0056,0.1601 l -0.2117,0.0085 0.0056,-0.2079 c 1.7393,0.0477 3.6254,0.0702 5.5906,0.0702 7.1887,0 15.4221,-0.2922 21.2696,-0.5928 l 0.0113,0.2107 0.2061,-0.0478 c 0.0142,0.0618 0,0.1237 -0.0367,0.1742 -0.0395,0.0506 -0.096,0.0815 -0.1581,0.0843 -5.8532,0.2978 -14.0922,0.5928 -21.2922,0.5928 -1.968,0 -3.8598,-0.0225 -5.6019,-0.073 -0.1129,-0.0028 -0.2005,-0.0899 -0.2061,-0.1995 -0.0019,-0.0581 -0.0028,-0.118 -0.0028,-0.1798 0,-0.4776 0.079,-1.0845 0.3586,-1.7307 0.2795,-0.6489 0.7595,-1.3345 1.5472,-1.9722 1.5784,-1.2755 4.3765,-2.3572 9.2979,-2.6381 1.4852,-0.0843 2.8377,-0.1264 4.0659,-0.1264 2.3492,0 4.2494,0.1545 5.7939,0.4691 1.5445,0.3147 2.736,0.7867 3.6536,1.4329 0.6127,0.427 1.1012,0.9327 1.4909,1.5059 0.5195,0.767 0.8583,1.6576 1.0898,2.6605 l -0.2061,0.0478 z"
       fill="#0e0705"
       id="path36" />
    <path
       d="m 25.9388,35.8069 c 0,0.5871 -0.4772,1.0648 -1.0673,1.0648 -0.5901,0 -1.0701,-0.4777 -1.0701,-1.0648 0,-0.5872 0.48,-1.062 1.0701,-1.062 0.5901,0 1.0673,0.4748 1.0673,1.062 z"
       fill="#0e0705"
       id="path38" />
    <path
       d="m 26.4499,60.5472 c 0,0.5872 -0.4772,1.062 -1.0673,1.062 -0.5901,0 -1.0701,-0.4748 -1.0701,-1.062 0,-0.5872 0.48,-1.0648 1.0701,-1.0648 0.5901,0 1.0673,0.4776 1.0673,1.0648 z"
       fill="#0e0705"
       id="path40" />
    <path
       d="m 68.0913,59.8982 c 0,0.5871 -0.48,1.0648 -1.0701,1.0648 -0.5902,0 -1.0673,-0.4777 -1.0673,-1.0648 0,-0.5872 0.4771,-1.062 1.0673,-1.062 0.5901,0 1.0701,0.4748 1.0701,1.062 z"
       fill="#0e0705"
       id="path42" />
    <path
       d="m 68.6475,35.2055 c 0,0.5872 -0.4771,1.0648 -1.0673,1.0648 -0.5901,0 -1.0701,-0.4776 -1.0701,-1.0648 0,-0.5871 0.48,-1.0619 1.0701,-1.0619 0.5902,0 1.0673,0.4748 1.0673,1.0619 z"
       fill="#0e0705"
       id="path44" />
    <path
       d="m 22.2852,34.641 10.1534,-0.7951 -10.128,1.0761 c -0.0762,0.0084 -0.1468,-0.0478 -0.1553,-0.1264 -0.0084,-0.0759 0.048,-0.1461 0.1243,-0.1546 z"
       fill="#0e0705"
       id="path46" />
    <path
       d="m 22.2711,36.0905 8.3972,-0.7951 -8.3662,1.0732 c -0.079,0.0113 -0.1496,-0.0449 -0.1581,-0.1208 -0.0113,-0.0758 0.0452,-0.1461 0.1214,-0.1573 z"
       fill="#0e0705"
       id="path48" />
    <path
       d="m 22.2344,37.7734 2.88,-0.1882 -2.849,0.4664 c -0.0762,0.0112 -0.1496,-0.0394 -0.1609,-0.1152 -0.0113,-0.0787 0.0395,-0.1489 0.1157,-0.163 z"
       fill="#0e0705"
       id="path50" />
    <path
       d="m 22.2796,39.2203 2.0837,-0.1405 -2.047,0.4186 C 22.24,39.5153 22.1666,39.4647 22.1497,39.3889 22.1356,39.313 22.1836,39.24 22.2598,39.2231 Z"
       fill="#0e0705"
       id="path52" />
    <path
       d="m 22.1355,40.7627 2.2758,-0.1882 -2.2334,0.4663 c -0.0763,0.0169 -0.1525,-0.0337 -0.1666,-0.1095 -0.017,-0.0759 0.031,-0.1489 0.1073,-0.1658 z"
       fill="#0e0705"
       id="path54" />
    <path
       d="m 22.2344,42.5385 3.4898,-0.236 -3.4588,0.5141 c -0.0762,0.0113 -0.1496,-0.0421 -0.1609,-0.118 -0.0113,-0.0758 0.0423,-0.1489 0.1186,-0.1601 z"
       fill="#0e0705"
       id="path56" />
    <path
       d="m 22.2343,43.8926 4.8537,-0.4214 -4.8198,0.6996 c -0.079,0.0112 -0.1496,-0.0422 -0.1609,-0.118 -0.0113,-0.0759 0.0423,-0.1489 0.1186,-0.1574 z"
       fill="#0e0705"
       id="path58" />
    <path
       d="m 22.4716,45.6203 2.5016,-0.0927 -2.4734,0.3736 c -0.0791,0.0113 -0.1497,-0.0421 -0.161,-0.1179 -0.0112,-0.0759 0.0396,-0.149 0.1186,-0.1602 z"
       fill="#0e0705"
       id="path60" />
    <path
       d="M 22.3812,47.1628 24.88,47.115 22.4009,47.4437 c -0.0762,0.0084 -0.1468,-0.045 -0.1581,-0.1208 -0.0084,-0.0787 0.0452,-0.1489 0.1214,-0.1601 z"
       fill="#0e0705"
       id="path62" />
    <path
       d="m 22.528,48.7051 2.4,0.0449 -2.3887,0.2332 c -0.079,0.0084 -0.1468,-0.0477 -0.1553,-0.1236 -0.0085,-0.0787 0.048,-0.1461 0.1271,-0.1545 z"
       fill="#0e0705"
       id="path64" />
    <path
       d="m 22.5675,50.1999 2.688,-0.0927 -2.6626,0.3708 c -0.079,0.0113 -0.1496,-0.0421 -0.1609,-0.118 -0.0113,-0.0758 0.0423,-0.1489 0.1214,-0.1573 z"
       fill="#0e0705"
       id="path66" />
    <path
       d="m 22.624,51.6018 2.1148,0.0927 -2.1091,0.1883 c -0.0791,0.0056 -0.1469,-0.0506 -0.1525,-0.1293 -0.0085,-0.0758 0.0508,-0.1461 0.127,-0.1517 z"
       fill="#0e0705"
       id="path68" />
    <path
       d="m 22.7143,53.144 2.3549,0.045 -2.3436,0.2332 c -0.0762,0.0084 -0.1468,-0.0478 -0.1553,-0.1264 -0.0056,-0.0759 0.0509,-0.1433 0.1271,-0.1518 z"
       fill="#0e0705"
       id="path70" />
    <path
       d="m 22.8047,54.7314 h 2.2165 l -2.1967,0.281 c -0.0791,0.0084 -0.1497,-0.045 -0.1581,-0.1236 -0.0113,-0.0759 0.0423,-0.1461 0.1214,-0.1574 z"
       fill="#0e0705"
       id="path72" />
    <path
       d="m 22.8584,56.1335 7.9369,0.0478 -7.9313,0.2332 c -0.079,0 -0.144,-0.059 -0.1468,-0.1377 -0.0028,-0.0758 0.0593,-0.1404 0.1383,-0.1433 z"
       fill="#0e0705"
       id="path74" />
    <path
       d="M 22.9967,57.628 29.8579,57.4875 23.008,57.909 C 22.9289,57.9118 22.864,57.8556 22.8583,57.7769 22.8527,57.7011 22.912,57.6336 22.991,57.628 Z"
       fill="#0e0705"
       id="path76" />
    <path
       d="m 23.1379,58.8896 h 3.2442 l -3.2329,0.281 c -0.0791,0.0056 -0.1468,-0.0506 -0.1525,-0.1292 -0.0085,-0.0759 0.0508,-0.1433 0.1271,-0.1518 z"
       fill="#0e0705"
       id="path78" />
    <path
       d="m 23.3243,60.4769 7.8945,-0.1854 -7.8832,0.4664 c -0.0763,0.0056 -0.144,-0.0534 -0.1469,-0.1321 -0.0056,-0.0758 0.0537,-0.1433 0.1299,-0.1461 z"
       fill="#0e0705"
       id="path80" />
    <path
       d="m 23.2,61.4603 8.0188,0.7474 -8.0385,-0.4692 c -0.0791,-0.0028 -0.1384,-0.0703 -0.1327,-0.1461 0.0028,-0.0787 0.0705,-0.1377 0.1468,-0.1321 z"
       fill="#0e0705"
       id="path82" />
    <path
       d="M 68.9016,41.7181 V 56.9286 L 68.6193,41.7209 c -0.0028,-0.0786 0.0593,-0.1405 0.1383,-0.1433 0.0763,0 0.1412,0.0618 0.144,0.1377 z"
       fill="#0e0705"
       id="path84" />
    <path
       d="m 50.2353,58.0496 c 0,0 0.1666,0 0.4489,0.0168 0.2852,0.0141 0.689,0.0478 1.1718,0.1096 0.24,0.0309 0.4998,0.0702 0.7765,0.1208 0.2739,0.0478 0.5619,0.1039 0.8555,0.177 0.2965,0.0674 0.5986,0.1517 0.9035,0.2444 0.305,0.0955 0.6128,0.1995 0.912,0.3231 0.3022,0.118 0.5958,0.2557 0.8782,0.4018 0.1411,0.073 0.2767,0.1545 0.415,0.2303 0.1299,0.0843 0.2626,0.163 0.3868,0.2501 0.2485,0.1714 0.4829,0.3512 0.6862,0.5394 0.2089,0.1854 0.3868,0.3765 0.5449,0.5591 0.0753,0.0955 0.1478,0.1864 0.2174,0.2725 0.0602,0.0899 0.1177,0.1761 0.1722,0.2585 0.1102,0.1629 0.1836,0.3175 0.2542,0.4383 0.1157,0.2556 0.1807,0.4017 0.1807,0.4017 0,0 -0.0678,-0.1433 -0.192,-0.3961 -0.0734,-0.118 -0.1497,-0.2697 -0.2626,-0.4299 -0.0584,-0.0786 -0.1186,-0.1629 -0.1807,-0.2528 -0.0716,-0.0843 -0.1459,-0.1723 -0.2231,-0.2641 -0.1609,-0.177 -0.3445,-0.3624 -0.5534,-0.5394 -0.2089,-0.1798 -0.4433,-0.3484 -0.6918,-0.5142 -0.127,-0.0814 -0.2597,-0.1573 -0.3924,-0.236 -0.1356,-0.0702 -0.2711,-0.1489 -0.4123,-0.2163 -0.2851,-0.1348 -0.576,-0.2641 -0.8781,-0.3737 -0.2993,-0.1123 -0.6042,-0.205 -0.9063,-0.295 -0.305,-0.0814 -0.6043,-0.1573 -0.9007,-0.2163 -0.2909,-0.0618 -0.5789,-0.1096 -0.8499,-0.1517 -0.2711,-0.0393 -0.5308,-0.073 -0.768,-0.0955 -0.4772,-0.0478 -0.8753,-0.0703 -1.1548,-0.0787 -0.2796,-0.0084 -0.4349,-0.0056 -0.4349,-0.0056 -0.079,0.0028 -0.144,-0.059 -0.1468,-0.1349 0,-0.0786 0.0621,-0.1432 0.1384,-0.1432 h 0.0028 z"
       fill="#0e0705"
       id="path86" />
    <path
       d="m 34.3897,62.8143 c 0,0 0.9995,0.0056 2.496,0.014 0.751,0.0029 1.6263,0.0057 2.5637,0.0085 0.9346,0 1.9341,0 2.9337,0 0.9995,-0.0028 1.999,-0.0084 2.9364,-0.0197 0.4688,-0.0056 0.9205,-0.0112 1.3497,-0.014 0.432,-0.0113 0.8358,-0.0197 1.2113,-0.0281 0.3755,-0.0085 0.7172,-0.0169 1.0221,-0.0253 0.3049,-0.0141 0.5704,-0.0281 0.7878,-0.0393 0.4376,-0.0225 0.6861,-0.0366 0.6861,-0.0366 0,0 -0.2485,0.0169 -0.6861,0.0478 -0.2174,0.014 -0.4829,0.0337 -0.785,0.0534 -0.3049,0.014 -0.6494,0.0281 -1.0221,0.0449 -0.3755,0.0141 -0.7821,0.0309 -1.2113,0.0478 -0.4292,0.0112 -0.8809,0.0253 -1.3496,0.0365 -0.9374,0.0309 -1.937,0.0534 -2.9365,0.0702 -0.9995,0.0197 -1.9991,0.0366 -2.9365,0.0562 -0.9374,0.0113 -1.8127,0.0253 -2.5609,0.0366 -1.4993,0.0168 -2.4988,0.0281 -2.4988,0.0281 -0.0791,0 -0.1412,-0.0619 -0.144,-0.1405 0,-0.0759 0.0621,-0.1405 0.1411,-0.1405 z"
       fill="#0e0705"
       id="path88" />
    <path
       d="m 26.4301,46.4856 c 0,0 -0.0367,2.6353 -0.0706,5.2734 -0.0056,0.3315 -0.0084,0.6602 -0.0141,0.9833 -0.0019,0.1629 -0.0038,0.3231 -0.0056,0.4804 0.0028,0.1545 0.0282,0.3091 0.0734,0.4523 0.0819,0.2894 0.24,0.5479 0.4348,0.7445 0.0932,0.1068 0.2089,0.1799 0.3106,0.2641 0.0583,0.0319 0.1148,0.0637 0.1694,0.0956 0.0565,0.0337 0.1101,0.0646 0.1694,0.0871 0.0565,0.0224 0.112,0.0449 0.1666,0.0674 0.0536,0.0225 0.1073,0.0449 0.1638,0.0562 0.1073,0.0299 0.2098,0.058 0.3077,0.0843 0.1977,0.0281 0.3727,0.0646 0.5167,0.0758 0.288,0.0169 0.4546,0.0253 0.4546,0.0253 0,0 -0.1666,-0.0056 -0.4574,-0.0141 -0.144,-0.0056 -0.319,-0.0365 -0.5195,-0.0618 C 28.032,55.0751 27.9275,55.0498 27.8165,55.0236 27.76,55.0123 27.7064,54.9927 27.6499,54.9702 27.5934,54.9496 27.536,54.9281 27.4776,54.9056 27.4184,54.8859 27.3619,54.855 27.3054,54.8241 c -0.0583,-0.0318 -0.1167,-0.0637 -0.175,-0.0955 -0.1073,-0.0843 -0.2316,-0.1545 -0.3276,-0.2641 -0.2089,-0.1967 -0.3783,-0.4608 -0.4772,-0.7642 -0.048,-0.1489 -0.079,-0.309 -0.0875,-0.472 -0.0019,-0.1611 -0.0037,-0.3231 -0.0056,-0.486 -0.0057,-0.3231 -0.0085,-0.6518 -0.0141,-0.9833 -0.0339,-2.6381 -0.0706,-5.2734 -0.0706,-5.2734 0,-0.0787 0.0621,-0.1405 0.1383,-0.1433 0.0791,0 0.1412,0.0618 0.144,0.1376 z"
       fill="#0e0705"
       id="path90" />
    <path
       d="m 36.0103,37.4448 27.185,0.281 H 36.0075 c -0.0762,0 -0.1412,-0.0646 -0.1412,-0.1405 0,-0.0787 0.065,-0.1405 0.1412,-0.1405 z"
       fill="#0e0705"
       id="path92" />
    <path
       d="m 26.5995,38.1753 c -0.0565,0.0534 -0.1157,0.1208 -0.1666,0.1854 -0.0546,0.0656 -0.1044,0.134 -0.1496,0.2051 -0.0932,0.1433 -0.1751,0.295 -0.2344,0.4524 -0.0621,0.1573 -0.1016,0.3202 -0.1214,0.486 l -0.0113,0.1264 v 0.1265 c 0.0028,0.0814 0.0113,0.1657 0.0254,0.25 0.0057,0.0393 0.017,0.0815 0.0254,0.1208 0.0095,0.0412 0.0208,0.0824 0.0339,0.1236 0.0254,0.0815 0.0593,0.1574 0.0932,0.236 0.0395,0.0759 0.0734,0.1545 0.1214,0.2248 l 0.0706,0.1096 0.0762,0.1039 c 0.048,0.0702 0.1102,0.1349 0.1666,0.2023 0.0565,0.0646 0.1214,0.1236 0.1807,0.1882 l 0.1949,0.1742 0.2061,0.1658 -0.0424,-0.0141 5.4184,0.3568 -5.4268,-0.2023 c -0.017,0 -0.0311,-0.0056 -0.0424,-0.014 L 26.8,41.6169 26.591,41.4399 C 26.5261,41.3753 26.4583,41.3135 26.3962,41.2489 26.3341,41.1787 26.2692,41.114 26.2127,41.041 L 26.128,40.9314 26.0518,40.8162 c -0.0537,-0.0758 -0.096,-0.1601 -0.1412,-0.2388 -0.0396,-0.0871 -0.0791,-0.1713 -0.1101,-0.2613 -0.017,-0.043 -0.0311,-0.087 -0.0424,-0.132 -0.0113,-0.0478 -0.0254,-0.0927 -0.0311,-0.1377 -0.0197,-0.0927 -0.031,-0.1854 -0.0395,-0.2809 l -0.0028,-0.1405 0.0085,-0.1433 c 0.0169,-0.1882 0.0593,-0.3736 0.1214,-0.5506 0.0621,-0.177 0.144,-0.3456 0.2428,-0.5057 0.0489,-0.0806 0.1016,-0.1574 0.1581,-0.2304 0.0565,-0.0759 0.1158,-0.1489 0.1864,-0.2192 0.0536,-0.0561 0.144,-0.0561 0.1976,-0.0028 0.0565,0.0534 0.0593,0.1433 0.0028,0.1967 l -0.0028,0.0028 z"
       fill="#0e0705"
       id="path94" />
    <path
       d="m 49.3205,41.4398 15.0014,0.2529 c 0.144,-0.0141 0.2908,-0.0394 0.432,-0.0759 0.0734,-0.0168 0.1412,-0.0421 0.2118,-0.0618 0.0706,-0.0225 0.1383,-0.0534 0.2061,-0.0787 0.0706,-0.028 0.1355,-0.0646 0.2005,-0.0955 0.0677,-0.0309 0.127,-0.073 0.192,-0.1095 0.0649,-0.0366 0.1186,-0.0843 0.1778,-0.1293 0.0311,-0.0225 0.0622,-0.0421 0.0876,-0.0674 l 0.079,-0.0759 c 0.0537,-0.0533 0.1102,-0.1011 0.1525,-0.1629 0.0452,-0.0562 0.0932,-0.1124 0.1355,-0.1742 l 0.1102,-0.191 c 0.0423,-0.0619 0.0592,-0.1349 0.0903,-0.1995 0.0254,-0.0703 0.0593,-0.1377 0.0734,-0.2107 l 0.0537,-0.2135 c 0.0197,-0.0703 0.0197,-0.1461 0.0282,-0.2192 l 0.0226,-0.2219 -0.017,0.2219 c -0.0112,0.0731 -0.0084,0.1489 -0.0282,0.2192 l -0.0508,0.2163 c -0.0113,0.0758 -0.0452,0.1405 -0.0706,0.2107 -0.0282,0.0674 -0.0452,0.1433 -0.0875,0.2051 l -0.1073,0.1938 c -0.0424,0.0618 -0.0904,0.1208 -0.1356,0.1798 -0.0423,0.0619 -0.096,0.1124 -0.1496,0.1658 l -0.0791,0.0787 c -0.0282,0.0253 -0.0564,0.0449 -0.0875,0.0702 -0.0593,0.045 -0.1129,0.0955 -0.1807,0.1321 -0.0621,0.0365 -0.1242,0.0814 -0.192,0.1151 -0.0649,0.0338 -0.1299,0.0703 -0.2005,0.0984 -0.0677,0.0281 -0.1355,0.059 -0.2089,0.0814 -0.0706,0.0253 -0.1412,0.0506 -0.2146,0.0675 -0.144,0.0393 -0.2908,0.0702 -0.4405,0.0843 H 64.3219 L 49.3177,41.7208 c -0.0763,-0.0028 -0.1384,-0.0646 -0.1384,-0.1405 0,-0.0787 0.0621,-0.1405 0.1412,-0.1405 z"
       fill="#0e0705"
       id="path96" />
    <path
       d="m 43.8993,54.6838 9.8569,0.2107 -9.8597,0.0703 c -0.0791,0 -0.1412,-0.0618 -0.1412,-0.1377 -0.0028,-0.0786 0.0621,-0.1405 0.1383,-0.1433 z"
       fill="#0e0705"
       id="path98" />
    <path
       d="m 60.3746,54.5433 c 0,0 1.6715,0.0085 3.3402,0.0141 0.209,0 0.4179,0 0.624,0 0.192,-0.0028 0.3953,-0.045 0.5789,-0.0955 0.1835,-0.0534 0.3586,-0.1208 0.5167,-0.2023 0.1524,-0.0843 0.2936,-0.177 0.4037,-0.2866 0.0283,-0.0262 0.0556,-0.0524 0.0819,-0.0787 0.0226,-0.0281 0.0452,-0.0552 0.0678,-0.0814 0.0226,-0.0281 0.0442,-0.0553 0.0649,-0.0815 0.0151,-0.0281 0.0311,-0.0562 0.048,-0.0843 0.0678,-0.1068 0.0988,-0.2107 0.1327,-0.295 0.0283,-0.0871 0.0339,-0.1601 0.0452,-0.2051 0.0113,-0.0477 0.0169,-0.073 0.0169,-0.073 0,0 -0.0056,0.0253 -0.0112,0.073 -0.0113,0.0478 -0.0142,0.1208 -0.0396,0.2079 -0.0282,0.0843 -0.0564,0.1939 -0.1214,0.3063 -0.0141,0.0281 -0.031,0.0561 -0.048,0.0871 -0.0188,0.0262 -0.0386,0.0543 -0.0593,0.0842 -0.0226,0.0281 -0.0452,0.0581 -0.0677,0.0899 -0.0264,0.0263 -0.0528,0.0534 -0.0791,0.0815 -0.1073,0.118 -0.2485,0.2192 -0.4038,0.3119 -0.1581,0.0899 -0.3331,0.1685 -0.5223,0.2303 -0.192,0.059 -0.3868,0.1124 -0.6043,0.1265 -0.2033,0.0084 -0.4122,0.0168 -0.6211,0.0253 -1.6687,0.0618 -3.3374,0.1264 -3.3374,0.1264 -0.0763,0.0028 -0.144,-0.0562 -0.1469,-0.1349 -0.0028,-0.0758 0.0593,-0.1404 0.1356,-0.1461 z"
       fill="#0e0705"
       id="path100" />
    <path
       d="m 30.7247,49.5003 c 0,0 -0.0057,0.163 0.0198,0.458 0.0225,0.295 0.079,0.7164 0.2061,1.2081 0.0649,0.2444 0.144,0.5085 0.2513,0.781 0.1044,0.2725 0.2343,0.5507 0.3896,0.8288 0.1497,0.2809 0.3417,0.5507 0.5421,0.8176 0.1101,0.1264 0.2118,0.2612 0.3332,0.382 l 0.1751,0.1827 0.1891,0.1713 c 0.1243,0.1208 0.2626,0.2192 0.3953,0.3259 0.1356,0.104 0.2796,0.1939 0.4179,0.2922 0.144,0.0843 0.288,0.1714 0.432,0.2501 0.1497,0.073 0.2937,0.1489 0.4405,0.2135 0.1506,0.0618 0.2974,0.1217 0.4405,0.1798 0.1468,0.0487 0.2908,0.0965 0.432,0.1433 0.1411,0.0477 0.2823,0.0786 0.415,0.1152 0.0678,0.0168 0.1346,0.0346 0.2005,0.0534 0.0659,0.0112 0.1299,0.0234 0.192,0.0365 0.128,0.0262 0.2494,0.0505 0.3642,0.073 0.1186,0.0197 0.2287,0.0309 0.3332,0.045 0.2089,0.0309 0.3896,0.0534 0.5421,0.0618 0.3021,0.0225 0.4744,0.0365 0.4744,0.0365 0,0 -0.1723,-0.0084 -0.4744,-0.0253 -0.1525,-0.0028 -0.336,-0.0225 -0.5449,-0.0477 -0.1045,-0.0113 -0.2174,-0.0197 -0.3332,-0.0366 -0.1167,-0.0206 -0.24,-0.0412 -0.3699,-0.0618 -0.064,-0.0112 -0.1289,-0.0234 -0.1948,-0.0365 -0.0659,-0.015 -0.1327,-0.03 -0.2005,-0.0449 -0.1355,-0.0366 -0.2795,-0.0619 -0.4235,-0.104 -0.1431,-0.045 -0.2889,-0.0899 -0.4377,-0.1349 C 34.7849,55.6082 34.6353,55.551 34.4828,55.493 34.3332,55.4312 34.1835,55.3581 34.031,55.2879 33.8814,55.212 33.7317,55.1277 33.5821,55.0434 33.4409,54.9507 33.2913,54.8608 33.1501,54.7597 33.0117,54.6529 32.8677,54.5546 32.7379,54.4366 l -0.1977,-0.1714 -0.1863,-0.1854 c -0.1271,-0.118 -0.2344,-0.2557 -0.3502,-0.3821 -0.2145,-0.2697 -0.4178,-0.5422 -0.5788,-0.826 -0.1694,-0.2809 -0.3106,-0.5675 -0.4235,-0.8456 -0.1186,-0.2754 -0.2061,-0.5479 -0.2795,-0.7979 -0.1469,-0.5057 -0.2146,-0.9384 -0.2457,-1.2446 -0.0169,-0.1517 -0.0254,-0.2725 -0.0282,-0.3568 -0.0019,-0.0431 -0.0028,-0.0759 -0.0028,-0.0984 0,-0.0206 0,-0.0309 0,-0.0309 v -0.0028 c -0.0029,-0.0758 0.0621,-0.1405 0.1383,-0.1405 0.0791,0 0.1412,0.0619 0.144,0.1377 z"
       fill="#fefefe"
       id="path102" />
    <path
       d="m 51.9153,50.4245 c 0,0 0.0395,0.1011 0.127,0.2781 0.0876,0.177 0.2203,0.4243 0.4066,0.7108 0.0932,0.1405 0.2005,0.2922 0.3163,0.4467 0.1214,0.1517 0.2484,0.3147 0.3953,0.4692 0.1411,0.1574 0.2993,0.3119 0.4658,0.4608 0.1666,0.1489 0.3445,0.2894 0.5337,0.4186 0.0903,0.0702 0.1892,0.1264 0.2852,0.1882 0.0979,0.0581 0.1957,0.1133 0.2936,0.1658 0.2005,0.1011 0.401,0.1938 0.6043,0.2669 0.2004,0.073 0.4009,0.132 0.5929,0.177 0.096,0.0196 0.1892,0.0421 0.2795,0.059 0.0923,0.0131 0.1807,0.0253 0.2654,0.0365 0.1723,0.0197 0.3304,0.0337 0.4716,0.0365 0.1383,0 0.2626,0.0085 0.3614,0 0.2033,-0.0084 0.3162,-0.014 0.3162,-0.014 0,0 -0.1129,0.0084 -0.3162,0.0281 -0.0988,0.0112 -0.2231,0.0056 -0.3643,0.0112 -0.1411,0.0028 -0.2993,-0.0056 -0.4715,-0.0168 -0.0866,-0.0094 -0.1769,-0.0188 -0.271,-0.0281 -0.0932,-0.0141 -0.1864,-0.0338 -0.2852,-0.0478 -0.1977,-0.0393 -0.401,-0.0899 -0.6099,-0.1573 -0.2061,-0.0675 -0.4151,-0.1517 -0.624,-0.2501 -0.1035,-0.0505 -0.2061,-0.103 -0.3078,-0.1573 -0.0988,-0.0618 -0.2033,-0.1152 -0.2993,-0.1798 -0.1976,-0.1264 -0.384,-0.2641 -0.5619,-0.4102 -0.1778,-0.1461 -0.3472,-0.2978 -0.4997,-0.4551 -0.1553,-0.1546 -0.2937,-0.3147 -0.4235,-0.4664 -0.1271,-0.1573 -0.2429,-0.3062 -0.3417,-0.4495 -0.2033,-0.2866 -0.3529,-0.5394 -0.4518,-0.7193 -0.096,-0.1798 -0.1468,-0.2921 -0.1468,-0.2921 v -0.0028 c -0.031,-0.0703 0,-0.1518 0.0706,-0.1827 0.0734,-0.0309 0.1553,0 0.1864,0.0703 z"
       fill="#fefefe"
       id="path104" />
    <path
       d="m 34.6607,61.8199 c 0,0 0.0142,-0.0309 0.0537,-0.1011 0.0197,-0.0337 0.0423,-0.0731 0.0734,-0.118 0.0282,-0.045 0.0621,-0.0984 0.1045,-0.1517 0.0395,-0.0534 0.0847,-0.1152 0.1355,-0.1798 0.0546,-0.06 0.1129,-0.1255 0.1751,-0.1967 0.0621,-0.0731 0.1355,-0.1377 0.2117,-0.2135 0.0377,-0.0375 0.0763,-0.0759 0.1158,-0.1152 0.0414,-0.0356 0.0837,-0.0712 0.127,-0.1068 0.0904,-0.073 0.1779,-0.1545 0.2796,-0.2275 0.1016,-0.0731 0.2051,-0.148 0.3106,-0.2248 0.1044,-0.0787 0.2287,-0.1405 0.3444,-0.2135 0.1186,-0.0675 0.2344,-0.1517 0.3643,-0.2107 0.2569,-0.1237 0.5167,-0.2669 0.799,-0.3681 0.1393,-0.058 0.2786,-0.1152 0.4179,-0.1714 0.1449,-0.0468 0.2899,-0.0927 0.4348,-0.1376 0.144,-0.045 0.288,-0.0984 0.4349,-0.1349 0.1468,-0.0374 0.2927,-0.073 0.4376,-0.1067 0.1449,-0.0356 0.288,-0.0712 0.4292,-0.1068 0.1449,-0.0243 0.287,-0.0487 0.4263,-0.073 0.1412,-0.0244 0.2786,-0.0478 0.4123,-0.0703 0.0677,-0.0112 0.1346,-0.0225 0.2004,-0.0337 0.0659,-0.0075 0.1309,-0.015 0.1949,-0.0225 0.2597,-0.0253 0.5025,-0.0534 0.7284,-0.0758 0.2259,-0.0309 0.4349,-0.0337 0.6184,-0.0422 0.1835,-0.0084 0.3445,-0.0168 0.4743,-0.0224 0.2654,-0.0113 0.4151,-0.0197 0.4151,-0.0197 0,0 -0.1497,0.0112 -0.4122,0.0309 -0.1327,0.0112 -0.2937,0.0225 -0.4772,0.0365 -0.1807,0.0141 -0.3897,0.0225 -0.6127,0.059 -0.2231,0.0309 -0.4659,0.0646 -0.7228,0.0983 -0.064,0.0094 -0.129,0.0188 -0.1949,0.0281 -0.0659,0.0132 -0.1317,0.0263 -0.1976,0.0394 -0.1337,0.0262 -0.2701,0.0534 -0.4094,0.0814 -0.1374,0.0281 -0.2777,0.0572 -0.4207,0.0871 -0.1393,0.0375 -0.2805,0.0759 -0.4236,0.1152 -0.143,0.0394 -0.287,0.0787 -0.432,0.118 -0.1411,0.0422 -0.2823,0.0984 -0.4235,0.1461 -0.1412,0.0506 -0.2823,0.1002 -0.4235,0.1489 -0.1374,0.06 -0.273,0.1199 -0.4066,0.1798 -0.2739,0.1096 -0.5252,0.2557 -0.7737,0.3849 -0.1242,0.0618 -0.2343,0.1461 -0.3501,0.2136 -0.1101,0.0758 -0.2287,0.1376 -0.3275,0.2191 -0.0998,0.0768 -0.1977,0.1517 -0.2937,0.2248 -0.096,0.073 -0.1778,0.1545 -0.2625,0.2247 -0.0415,0.0375 -0.0819,0.074 -0.1215,0.1096 -0.0357,0.0374 -0.0705,0.0749 -0.1044,0.1124 -0.0706,0.073 -0.1412,0.1376 -0.1948,0.2079 -0.0565,0.0674 -0.1102,0.1311 -0.161,0.191 -0.0452,0.0618 -0.0847,0.1208 -0.1214,0.1714 -0.0706,0.1039 -0.1242,0.191 -0.1525,0.2444 -0.0282,0.0534 -0.0451,0.0899 -0.0451,0.0899 -0.0311,0.0731 -0.113,0.104 -0.1836,0.0759 -0.0734,-0.0309 -0.1044,-0.1152 -0.0734,-0.1855 z"
       fill="#0e0705"
       id="path106" />
    <path
       d="M 35.7252,62.0193 45.729,62.067 35.728,62.3002 c -0.0762,0.0028 -0.1412,-0.059 -0.144,-0.1376 -0.0028,-0.0759 0.0593,-0.1405 0.1384,-0.1433 z"
       fill="#0e0705"
       id="path108" />
  </g>
  <defs
     id="defs153" />
</svg>
