<svg width="14" height="14" viewBox="0 0 14 14" fill="none" xmlns="http://www.w3.org/2000/svg">
<path d="M13.2753 1.60869C13.5193 1.36461 13.5193 0.968884 13.2753 0.724806C13.0312 0.480729 12.6355 0.480729 12.3914 0.724806L6.99997 6.11621L1.60857 0.724809C1.36449 0.480731 0.968762 0.480731 0.724684 0.724809C0.480607 0.968887 0.480607 1.36461 0.724684 1.60869L6.11609 7.00009L0.724707 12.3915C0.480629 12.6356 0.480629 13.0313 0.724707 13.2754C0.968784 13.5194 1.36451 13.5194 1.60859 13.2754L6.99997 7.88398L12.3914 13.2754C12.6354 13.5194 13.0312 13.5194 13.2752 13.2754C13.5193 13.0313 13.5193 12.6356 13.2752 12.3915L7.88385 7.00009L13.2753 1.60869Z" fill="white"/>
<path d="M13.2753 1.60869C13.5193 1.36461 13.5193 0.968884 13.2753 0.724806C13.0312 0.480729 12.6355 0.480729 12.3914 0.724806L6.99997 6.11621L1.60857 0.724809C1.36449 0.480731 0.968762 0.480731 0.724684 0.724809C0.480607 0.968887 0.480607 1.36461 0.724684 1.60869L6.11609 7.00009L0.724707 12.3915C0.480629 12.6356 0.480629 13.0313 0.724707 13.2754C0.968784 13.5194 1.36451 13.5194 1.60859 13.2754L6.99997 7.88398L12.3914 13.2754C12.6354 13.5194 13.0312 13.5194 13.2752 13.2754C13.5193 13.0313 13.5193 12.6356 13.2752 12.3915L7.88385 7.00009L13.2753 1.60869Z" fill="white"/>
</svg>
