<svg width="18" height="16" viewBox="0 0 18 16" fill="none" xmlns="http://www.w3.org/2000/svg">
<path d="M7.12459 8.00041C7.12459 6.96487 7.96406 6.12541 8.99959 6.12541C10.0351 6.12541 10.8746 6.96487 10.8746 8.00041C10.8746 9.03594 10.0351 9.87541 8.99959 9.87541C7.96406 9.87541 7.12459 9.03594 7.12459 8.00041Z" fill="white"/>
<path d="M7.12459 8.00041C7.12459 6.96487 7.96406 6.12541 8.99959 6.12541C10.0351 6.12541 10.8746 6.96487 10.8746 8.00041C10.8746 9.03594 10.0351 9.87541 8.99959 9.87541C7.96406 9.87541 7.12459 9.03594 7.12459 8.00041Z" fill="white"/>
<path fill-rule="evenodd" clip-rule="evenodd" d="M4.2927 2.6635C5.6023 1.59123 7.21547 0.70874 8.9996 0.70874C10.7837 0.70874 12.3969 1.59123 13.7065 2.6635C15.0232 3.74163 16.0999 5.06595 16.8234 6.07375L16.8831 6.15674C17.3186 6.76194 17.6772 7.26012 17.6772 8.00041C17.6772 8.7407 17.3186 9.23888 16.8831 9.84409L16.8234 9.92706C16.0999 10.9349 15.0232 12.2592 13.7065 13.3373C12.3969 14.4096 10.7837 15.2921 8.9996 15.2921C7.21547 15.2921 5.6023 14.4096 4.2927 13.3373C2.97596 12.2592 1.89928 10.9349 1.17577 9.92706L1.1161 9.84408C0.680553 9.23888 0.322021 8.74069 0.322021 8.00041C0.322021 7.26012 0.680553 6.76194 1.1161 6.15673L1.17577 6.07375C1.89928 5.06595 2.97596 3.74163 4.2927 2.6635ZM8.99959 4.87541C7.2737 4.87541 5.87459 6.27452 5.87459 8.00041C5.87459 9.7263 7.2737 11.1254 8.99959 11.1254C10.7255 11.1254 12.1246 9.7263 12.1246 8.00041C12.1246 6.27452 10.7255 4.87541 8.99959 4.87541Z" fill="white"/>
<path fill-rule="evenodd" clip-rule="evenodd" d="M4.2927 2.6635C5.6023 1.59123 7.21547 0.70874 8.9996 0.70874C10.7837 0.70874 12.3969 1.59123 13.7065 2.6635C15.0232 3.74163 16.0999 5.06595 16.8234 6.07375L16.8831 6.15674C17.3186 6.76194 17.6772 7.26012 17.6772 8.00041C17.6772 8.7407 17.3186 9.23888 16.8831 9.84409L16.8234 9.92706C16.0999 10.9349 15.0232 12.2592 13.7065 13.3373C12.3969 14.4096 10.7837 15.2921 8.9996 15.2921C7.21547 15.2921 5.6023 14.4096 4.2927 13.3373C2.97596 12.2592 1.89928 10.9349 1.17577 9.92706L1.1161 9.84408C0.680553 9.23888 0.322021 8.74069 0.322021 8.00041C0.322021 7.26012 0.680553 6.76194 1.1161 6.15673L1.17577 6.07375C1.89928 5.06595 2.97596 3.74163 4.2927 2.6635ZM8.99959 4.87541C7.2737 4.87541 5.87459 6.27452 5.87459 8.00041C5.87459 9.7263 7.2737 11.1254 8.99959 11.1254C10.7255 11.1254 12.1246 9.7263 12.1246 8.00041C12.1246 6.27452 10.7255 4.87541 8.99959 4.87541Z" fill="white"/>
</svg>
