<svg width="18" height="16" viewBox="0 0 18 16" fill="none" xmlns="http://www.w3.org/2000/svg">
<path fill-rule="evenodd" clip-rule="evenodd" d="M17.7246 1.82181C17.9941 1.60618 18.0378 1.21287 17.8222 0.943329C17.6066 0.67379 17.2133 0.630089 16.9437 0.84572L14.1726 3.0626C14.0213 2.92666 13.8662 2.79331 13.7077 2.66353C12.3981 1.59126 10.785 0.708763 9.00084 0.708763C7.21671 0.708763 5.60354 1.59126 4.29395 2.66353C2.9772 3.74165 1.90052 5.06597 1.17702 6.07378L1.11735 6.15675C0.681797 6.76196 0.323265 7.26014 0.323265 8.00043C0.323265 8.74072 0.681796 9.2389 1.11735 9.84411L1.17702 9.92709C1.6309 10.5593 2.22377 11.3161 2.9277 12.0585L0.277069 14.1791C0.00753039 14.3947 -0.0361705 14.788 0.17946 15.0575C0.395091 15.3271 0.788399 15.3708 1.05794 15.1551L17.7246 1.82181ZM6.21896 9.42554L7.22959 8.61704C7.16237 8.42393 7.12584 8.21645 7.12584 8.00043C7.12584 6.9649 7.9653 6.12543 9.00084 6.12543C9.36433 6.12543 9.70366 6.22886 9.99101 6.4079L11.0014 5.59961C10.4594 5.14747 9.76187 4.87543 9.00084 4.87543C7.27495 4.87543 5.87584 6.27454 5.87584 8.00043C5.87584 8.51378 5.99962 8.99822 6.21896 9.42554Z" fill="white"/>
<path fill-rule="evenodd" clip-rule="evenodd" d="M17.7246 1.82181C17.9941 1.60618 18.0378 1.21287 17.8222 0.943329C17.6066 0.67379 17.2133 0.630089 16.9437 0.84572L14.1726 3.0626C14.0213 2.92666 13.8662 2.79331 13.7077 2.66353C12.3981 1.59126 10.785 0.708763 9.00084 0.708763C7.21671 0.708763 5.60354 1.59126 4.29395 2.66353C2.9772 3.74165 1.90052 5.06597 1.17702 6.07378L1.11735 6.15675C0.681797 6.76196 0.323265 7.26014 0.323265 8.00043C0.323265 8.74072 0.681796 9.2389 1.11735 9.84411L1.17702 9.92709C1.6309 10.5593 2.22377 11.3161 2.9277 12.0585L0.277069 14.1791C0.00753039 14.3947 -0.0361705 14.788 0.17946 15.0575C0.395091 15.3271 0.788399 15.3708 1.05794 15.1551L17.7246 1.82181ZM6.21896 9.42554L7.22959 8.61704C7.16237 8.42393 7.12584 8.21645 7.12584 8.00043C7.12584 6.9649 7.9653 6.12543 9.00084 6.12543C9.36433 6.12543 9.70366 6.22886 9.99101 6.4079L11.0014 5.59961C10.4594 5.14747 9.76187 4.87543 9.00084 4.87543C7.27495 4.87543 5.87584 6.27454 5.87584 8.00043C5.87584 8.51378 5.99962 8.99822 6.21896 9.42554Z" fill="white"/>
<path d="M16.2468 5.30444L12.0569 8.65638C11.7555 10.0673 10.5017 11.1254 9.00084 11.1254L8.97074 11.1253L5.29086 14.0692C6.39029 14.7834 7.64629 15.2921 9.00084 15.2921C10.785 15.2921 12.3981 14.4096 13.7077 13.3373C15.0245 12.2592 16.1012 10.9349 16.8247 9.92708L16.8843 9.84411C17.3199 9.2389 17.6784 8.74072 17.6784 8.00043C17.6784 7.26014 17.3199 6.76196 16.8843 6.15676L16.8247 6.07377C16.6517 5.83286 16.4586 5.57385 16.2468 5.30444Z" fill="white"/>
<path d="M16.2468 5.30444L12.0569 8.65638C11.7555 10.0673 10.5017 11.1254 9.00084 11.1254L8.97074 11.1253L5.29086 14.0692C6.39029 14.7834 7.64629 15.2921 9.00084 15.2921C10.785 15.2921 12.3981 14.4096 13.7077 13.3373C15.0245 12.2592 16.1012 10.9349 16.8247 9.92708L16.8843 9.84411C17.3199 9.2389 17.6784 8.74072 17.6784 8.00043C17.6784 7.26014 17.3199 6.76196 16.8843 6.15676L16.8247 6.07377C16.6517 5.83286 16.4586 5.57385 16.2468 5.30444Z" fill="white"/>
</svg>
