<svg width="16" height="18" viewBox="0 0 16 18" fill="none" xmlns="http://www.w3.org/2000/svg">
<path d="M6.95833 9.83341C6.95833 9.25812 7.4247 8.79175 8 8.79175C8.5753 8.79175 9.04167 9.25812 9.04167 9.83341C9.04167 10.4087 8.5753 10.8751 8 10.8751C7.4247 10.8751 6.95833 10.4087 6.95833 9.83341Z" fill="white"/>
<path d="M6.95833 9.83341C6.95833 9.25812 7.4247 8.79175 8 8.79175C8.5753 8.79175 9.04167 9.25812 9.04167 9.83341C9.04167 10.4087 8.5753 10.8751 8 10.8751C7.4247 10.8751 6.95833 10.4087 6.95833 9.83341Z" fill="white"/>
<path fill-rule="evenodd" clip-rule="evenodd" d="M8 0.041748C5.35364 0.041748 3.20833 2.18705 3.20833 4.83341V5.76151C3.20833 5.81718 3.21561 5.87115 3.22927 5.92253C2.03252 6.36227 1.09972 7.32773 0.703931 8.54584C0.5 9.17348 0.5 9.94901 0.5 11.5001C0.5 13.0511 0.5 13.8267 0.703931 14.4543C1.11609 15.7228 2.1106 16.7173 3.3791 17.1295C4.00673 17.3334 4.78226 17.3334 6.33332 17.3334H9.66667C11.2177 17.3334 11.9933 17.3334 12.6209 17.1295C13.8894 16.7173 14.8839 15.7228 15.2961 14.4543C15.5 13.8267 15.5 13.0511 15.5 11.5001C15.5 9.94901 15.5 9.17348 15.2961 8.54584C14.9003 7.32773 13.9675 6.36227 12.7707 5.92253C12.7844 5.87115 12.7917 5.81718 12.7917 5.76151V4.83341C12.7917 2.18705 10.6464 0.041748 8 0.041748ZM9.66667 5.66675C10.4711 5.66675 11.0669 5.66675 11.5417 5.69519V4.83341C11.5417 2.87741 9.95601 1.29175 8 1.29175C6.04399 1.29175 4.45833 2.87741 4.45833 4.83341V5.69519C4.93311 5.66675 5.52893 5.66675 6.33333 5.66675H9.66667ZM5.70833 9.83341C5.70833 8.56776 6.73435 7.54175 8 7.54175C9.26565 7.54175 10.2917 8.56776 10.2917 9.83341C10.2917 10.8824 9.58688 11.7668 8.625 12.0388V14.8334C8.625 15.1786 8.34518 15.4584 8 15.4584C7.65482 15.4584 7.375 15.1786 7.375 14.8334V12.0388C6.41312 11.7668 5.70833 10.8824 5.70833 9.83341Z" fill="white"/>
<path fill-rule="evenodd" clip-rule="evenodd" d="M8 0.041748C5.35364 0.041748 3.20833 2.18705 3.20833 4.83341V5.76151C3.20833 5.81718 3.21561 5.87115 3.22927 5.92253C2.03252 6.36227 1.09972 7.32773 0.703931 8.54584C0.5 9.17348 0.5 9.94901 0.5 11.5001C0.5 13.0511 0.5 13.8267 0.703931 14.4543C1.11609 15.7228 2.1106 16.7173 3.3791 17.1295C4.00673 17.3334 4.78226 17.3334 6.33332 17.3334H9.66667C11.2177 17.3334 11.9933 17.3334 12.6209 17.1295C13.8894 16.7173 14.8839 15.7228 15.2961 14.4543C15.5 13.8267 15.5 13.0511 15.5 11.5001C15.5 9.94901 15.5 9.17348 15.2961 8.54584C14.9003 7.32773 13.9675 6.36227 12.7707 5.92253C12.7844 5.87115 12.7917 5.81718 12.7917 5.76151V4.83341C12.7917 2.18705 10.6464 0.041748 8 0.041748ZM9.66667 5.66675C10.4711 5.66675 11.0669 5.66675 11.5417 5.69519V4.83341C11.5417 2.87741 9.95601 1.29175 8 1.29175C6.04399 1.29175 4.45833 2.87741 4.45833 4.83341V5.69519C4.93311 5.66675 5.52893 5.66675 6.33333 5.66675H9.66667ZM5.70833 9.83341C5.70833 8.56776 6.73435 7.54175 8 7.54175C9.26565 7.54175 10.2917 8.56776 10.2917 9.83341C10.2917 10.8824 9.58688 11.7668 8.625 12.0388V14.8334C8.625 15.1786 8.34518 15.4584 8 15.4584C7.65482 15.4584 7.375 15.1786 7.375 14.8334V12.0388C6.41312 11.7668 5.70833 10.8824 5.70833 9.83341Z" fill="white"/>
</svg>
