<svg width="19" height="16" viewBox="0 0 19 16" fill="none" xmlns="http://www.w3.org/2000/svg">
<path fill-rule="evenodd" clip-rule="evenodd" d="M17.5686 6.60503C17.5625 6.61828 17.5565 6.63153 17.5508 6.645C17.5451 6.65896 17.5406 6.67353 17.5361 6.68805C17.5288 6.71167 17.5215 6.73519 17.5092 6.75583C17.4845 6.79669 17.4523 6.83099 17.42 6.8654C17.4108 6.8752 17.4015 6.88502 17.3925 6.895C17.3824 6.90543 17.3735 6.91688 17.3646 6.92831C17.3521 6.94428 17.3397 6.96022 17.3242 6.97333C17.2775 7.01145 17.2235 7.03795 17.1698 7.06435C17.166 7.06623 17.1621 7.06812 17.1583 7.07C17.147 7.07551 17.1362 7.08244 17.1254 7.08938C17.11 7.09925 17.0946 7.10913 17.0775 7.115C16.9875 7.14833 16.8917 7.16667 16.7925 7.16667C16.7475 7.16667 16.7008 7.16333 16.655 7.155L13.1133 6.5675C12.6592 6.4925 12.3525 6.06333 12.4275 5.60917C12.5025 5.15583 12.9308 4.845 13.3858 4.92417L14.7558 5.15083C13.7183 3.32917 11.7375 2.16667 9.55748 2.16667C7.09165 2.16667 4.91915 3.59833 4.02165 5.8125C3.89082 6.1375 3.57832 6.33333 3.24915 6.33333C3.14498 6.33333 3.03915 6.31417 2.93665 6.2725C2.50998 6.1 2.30415 5.61417 2.47748 5.1875C3.63082 2.34 6.40999 0.5 9.55748 0.5C12.4008 0.5 14.985 2.05833 16.2892 4.49L16.5967 2.84583C16.6817 2.39417 17.1183 2.095 17.5692 2.18167C18.0217 2.26583 18.32 2.70167 18.235 3.15417L17.6108 6.4875C17.6028 6.53 17.5857 6.5675 17.5686 6.60503ZM14.9778 10.1877C15.1503 9.76017 15.637 9.55517 16.0628 9.72767C16.4895 9.90017 16.6953 10.386 16.522 10.8127C15.3687 13.6602 12.5895 15.5002 9.442 15.5002C6.59866 15.5002 4.0145 13.9418 2.71033 11.5102L2.402 13.1535C2.32783 13.5543 1.97783 13.8335 1.58366 13.8335C1.53283 13.8335 1.48116 13.8285 1.4295 13.8185C0.976995 13.7343 0.679495 13.2985 0.764495 12.846L1.38866 9.51267C1.395 9.47994 1.40902 9.45088 1.42312 9.4217C1.43127 9.40481 1.43944 9.38788 1.44616 9.37017C1.45275 9.35356 1.45851 9.33638 1.46427 9.31916C1.47674 9.28194 1.48925 9.24457 1.51033 9.21267C1.52263 9.19371 1.53871 9.17853 1.55489 9.16325C1.56502 9.15369 1.57519 9.14409 1.5845 9.1335C1.59183 9.125 1.59909 9.11645 1.60634 9.1079C1.646 9.06115 1.6853 9.01482 1.73533 8.981C1.74024 8.97743 1.74611 8.97529 1.75191 8.97318C1.75694 8.97135 1.76191 8.96954 1.76616 8.96683C1.847 8.91433 1.93366 8.8735 2.0295 8.85267C2.03533 8.85132 2.04141 8.85167 2.04747 8.85201C2.05266 8.85231 2.05783 8.8526 2.06283 8.85183C2.1545 8.83683 2.247 8.82767 2.3445 8.84433L5.88616 9.43267C6.34033 9.50683 6.647 9.93683 6.572 10.391C6.5045 10.7985 6.15116 11.0877 5.75033 11.0877C5.70533 11.0877 5.6595 11.0843 5.61366 11.076L4.24366 10.8493C5.28116 12.671 7.262 13.8335 9.442 13.8335C11.9078 13.8335 14.0803 12.4018 14.9778 10.1877Z" fill="white"/>
</svg>
